<?xml version="1.0" encoding="UTF-8"?>
<svg id="Layer_1" data-name="Layer 1" xmlns="http://www.w3.org/2000/svg" viewBox="0 0 1080 371.49">
  <path d="M151.7,261.33c-7.27,19.99-17.72,54.96-17.72,54.96h-.91s-9.99-33.61-17.25-53.6L31.79,22.89H0l116.26,324.74h33.16l56.48-155.92v-83.4l-54.21,153.02Z"/>
  <path d="M562.26,276.33c-2.27-50.42-13.17-74.94-46.78-86.3v-1.36c37.24-11.81,54.5-38.16,54.5-78.12,0-54.05-33.61-87.66-92.19-87.66h-144.89v324.74h30.44v-144.88h99.01c47.23,0,66.76,15.89,69.48,72.2,2.74,55.41,4.55,67.69,11.81,72.68h32.7v-1.83c-5.91-4.08-11.79-17.25-14.07-69.48ZM467.33,176.86h-104V49.7h108.08c49.06,0,67.22,23.16,67.22,63.57s-24.07,63.59-71.3,63.59Z"/>
  <path d="M712.57,22.89h-115.35v324.74h112.18c95.82,0,142.16-64.95,142.16-161.23s-43.15-163.51-138.99-163.51ZM708.49,320.84h-80.84V49.7h84.03c77.66,0,108.08,54.5,108.08,136.7s-33.61,134.44-111.27,134.44Z"/>
  <path d="M872.89,320.38v-1.36l199.84-270.23v-25.9h-223v25.9h186.2v1.36l-198.46,267.96v29.53h242.52v-27.26h-207.11Z"/>
  <path d="M205.91,0v108.31l30.26-85.42h30.89l-61.15,168.82v179.78h74.22V0h-74.22ZM261.07,348.37h-34.6v-41.02h34.6v41.02Z"/>
</svg>