<?xml version="1.0" encoding="UTF-8"?>
<svg id="Layer_1" data-name="Layer 1" xmlns="http://www.w3.org/2000/svg" viewBox="0 0 135.03 12.61">
  <path d="M3.52,1.45h1.37c.77,1.87,2.16,5.45,3.06,7.81h.02c.92-2.36,2.28-5.92,3.02-7.81h1.35l-3.67,9.35h-1.48L3.52,1.45Z"/>
  <path d="M15.44,1.45h1.48l3.68,9.35h-1.38c-.38-.97-.77-1.91-1.15-2.88h-3.83c-.38.97-.74,1.91-1.13,2.88h-1.35L15.44,1.45ZM17.61,6.69c-.47-1.18-.96-2.46-1.43-3.71h-.02c-.32.84-.9,2.29-1.45,3.71h2.9Z"/>
  <path d="M21.83,1.45h1.28v8.14h4.47v1.21h-5.76V1.45Z"/>
  <path d="M28.9,1.45h5.98v1.19h-4.7v2.77h4.46v1.24h-4.46v2.95h4.82v1.21h-6.1V1.45Z"/>
  <path d="M36.75,1.45h3.43c1.19,0,3.15.65,3.15,2.89,0,1.68-1.02,2.61-2.28,2.82h0c.82,1.24,1.62,2.42,2.44,3.65h-1.45l-2.36-3.55h-1.64v3.55h-1.28V1.45ZM39.99,6.12c1.04,0,1.99-.5,1.99-1.74s-1-1.75-2.03-1.75h-1.92v3.49h1.95Z"/>
  <path d="M45.13,1.45h1.28v9.35h-1.28V1.45Z"/>
  <path d="M48.69,1.45h5.98v1.19h-4.7v2.77h4.46v1.24h-4.46v2.95h4.82v1.21h-6.1V1.45Z"/>
  <path d="M59.56,1.45h3.43c1.19,0,3.15.65,3.15,2.89,0,1.68-1.02,2.61-2.28,2.82h0c.82,1.24,1.62,2.42,2.44,3.65h-1.45l-2.36-3.55h-1.64v3.55h-1.28V1.45ZM62.8,6.12c1.04,0,1.99-.5,1.99-1.74s-1-1.75-2.03-1.75h-1.92v3.49h1.95Z"/>
  <path d="M67.47,6.14c0-2.79,2.1-4.88,4.69-4.88s4.68,2.17,4.68,4.88-2.09,4.87-4.69,4.87-4.68-2.06-4.68-4.87ZM76.19,6.14c0-2.52-1.88-4.33-4.02-4.33s-4.07,1.81-4.07,4.33,1.9,4.32,4.07,4.32,4.02-1.81,4.02-4.32Z"/>
  <path d="M78.65,1.45h3.44c3.12,0,4.44,2.09,4.44,4.62,0,2.78-1.61,4.74-4.33,4.74h-3.55V1.45ZM82.13,9.62c1.73,0,3.05-1.1,3.05-3.47,0-2.59-1.58-3.51-3.39-3.51h-1.85v6.98h2.19Z"/>
  <path d="M88.46,1.45h3.19c1.97,0,3.01,1.2,3.01,2.71s-1,2.69-2.51,2.79h0c.85,1.3,1.72,2.57,2.57,3.85h-.65l-2.58-3.84h-2.45v3.84h-.59V1.45ZM91.65,6.44c1.56,0,2.4-.85,2.4-2.22s-.96-2.24-2.52-2.24h-2.48v4.46h2.6Z"/>
  <path d="M96.75,1.45h.59v9.35h-.59V1.45Z"/>
  <path d="M99.37,6.18c0-2.9,2.03-4.92,4.64-4.92,1.65,0,3.47.8,4.07,2.67l-.52.22c-.6-1.54-2.03-2.34-3.54-2.34-2.13,0-4.02,1.61-4.02,4.37s2.03,4.28,4.09,4.28,3.6-1.57,3.72-3.61h-3.48v-.53h4.07v4.49h-.52v-2.31h-.06c-.62,1.56-1.92,2.52-3.81,2.52-2.71,0-4.64-2-4.64-4.83Z"/>
  <path d="M110.48,7.5V1.45h.59v6.02c0,2.19,1.12,3.01,2.71,3.01s2.71-.82,2.71-3.01V1.45h.59v6.04c0,2.16-1.14,3.51-3.33,3.51-1.89,0-3.26-1.02-3.26-3.51Z"/>
  <path d="M119.65,1.45h5.82v.53h-5.23v3.74h4.99v.53h-4.99v3.99h5.35v.56h-5.94V1.45Z"/>
  <path d="M132.11,2.65h0c-1.75-.01-3.53-.01-5.29-.01v-1.19h6.91v1.22c-1.85,2.3-3.68,4.59-5.53,6.9v.02h5.64v1.21h-7.21v-1.22c1.83-2.31,3.65-4.62,5.48-6.93Z"/>
</svg>